<svg id="my-svg" width="100%" xmlns="http://www.w3.org/2000/svg" xmlns:xlink="http://www.w3.org/1999/xlink" class="flowchart" style="max-width: 1273.96px; background-color: white;" viewBox="0 0 1273.96435546875 530" role="graphics-document document" aria-roledescription="flowchart-v2"><style>#my-svg{font-family:"trebuchet ms",verdana,arial,sans-serif;font-size:16px;fill:#333;}@keyframes edge-animation-frame{from{stroke-dashoffset:0;}}@keyframes dash{to{stroke-dashoffset:0;}}#my-svg .edge-animation-slow{stroke-dasharray:9,5!important;stroke-dashoffset:900;animation:dash 50s linear infinite;stroke-linecap:round;}#my-svg .edge-animation-fast{stroke-dasharray:9,5!important;stroke-dashoffset:900;animation:dash 20s linear infinite;stroke-linecap:round;}#my-svg .error-icon{fill:#552222;}#my-svg .error-text{fill:#552222;stroke:#552222;}#my-svg .edge-thickness-normal{stroke-width:1px;}#my-svg .edge-thickness-thick{stroke-width:3.5px;}#my-svg .edge-pattern-solid{stroke-dasharray:0;}#my-svg .edge-thickness-invisible{stroke-width:0;fill:none;}#my-svg .edge-pattern-dashed{stroke-dasharray:3;}#my-svg .edge-pattern-dotted{stroke-dasharray:2;}#my-svg .marker{fill:#333333;stroke:#333333;}#my-svg .marker.cross{stroke:#333333;}#my-svg svg{font-family:"trebuchet ms",verdana,arial,sans-serif;font-size:16px;}#my-svg p{margin:0;}#my-svg .label{font-family:"trebuchet ms",verdana,arial,sans-serif;color:#333;}#my-svg .cluster-label text{fill:#333;}#my-svg .cluster-label span{color:#333;}#my-svg .cluster-label span p{background-color:transparent;}#my-svg .label text,#my-svg span{fill:#333;color:#333;}#my-svg .node rect,#my-svg .node circle,#my-svg .node ellipse,#my-svg .node polygon,#my-svg .node path{fill:#ECECFF;stroke:#9370DB;stroke-width:1px;}#my-svg .rough-node .label text,#my-svg .node .label text,#my-svg .image-shape .label,#my-svg .icon-shape .label{text-anchor:middle;}#my-svg .node .katex path{fill:#000;stroke:#000;stroke-width:1px;}#my-svg .rough-node .label,#my-svg .node .label,#my-svg .image-shape .label,#my-svg .icon-shape .label{text-align:center;}#my-svg .node.clickable{cursor:pointer;}#my-svg .root .anchor path{fill:#333333!important;stroke-width:0;stroke:#333333;}#my-svg .arrowheadPath{fill:#333333;}#my-svg .edgePath .path{stroke:#333333;stroke-width:1px;}#my-svg .flowchart-link{stroke:#333333;fill:none;}#my-svg .edgeLabel{background-color:rgba(232,232,232, 0.8);text-align:center;}#my-svg .edgeLabel p{background-color:rgba(232,232,232, 0.8);}#my-svg .edgeLabel rect{opacity:0.5;background-color:rgba(232,232,232, 0.8);fill:rgba(232,232,232, 0.8);}#my-svg .labelBkg{background-color:rgba(232, 232, 232, 0.5);}#my-svg .cluster rect{fill:#ffffde;stroke:#aaaa33;stroke-width:1px;}#my-svg .cluster text{fill:#333;}#my-svg .cluster span{color:#333;}#my-svg div.mermaidTooltip{position:absolute;text-align:center;max-width:200px;padding:2px;font-family:"trebuchet ms",verdana,arial,sans-serif;font-size:12px;background:hsl(80, 100%, 96.2745098039%);border:1px solid #aaaa33;border-radius:2px;pointer-events:none;z-index:100;}#my-svg .flowchartTitleText{text-anchor:middle;font-size:18px;fill:#333;}#my-svg rect.text{fill:none;stroke-width:0;}#my-svg .icon-shape,#my-svg .image-shape{background-color:rgba(232,232,232, 0.8);text-align:center;}#my-svg .icon-shape p,#my-svg .image-shape p{background-color:rgba(232,232,232, 0.8);padding:2px;}#my-svg .icon-shape .label rect,#my-svg .image-shape .label rect{opacity:0.5;background-color:rgba(232,232,232, 0.8);fill:rgba(232,232,232, 0.8);}#my-svg .label-icon{display:inline-block;height:1em;overflow:visible;vertical-align:-0.125em;}#my-svg .node .label-icon path{fill:currentColor;stroke:revert;stroke-width:revert;}#my-svg .node .neo-node{stroke:#9370DB;}#my-svg [data-look="neo"].node rect,#my-svg [data-look="neo"].cluster rect,#my-svg [data-look="neo"].node polygon{stroke:#9370DB;filter:drop-shadow(1px 2px 2px rgba(185, 185, 185, 1));}#my-svg [data-look="neo"].node path{stroke:#9370DB;stroke-width:1px;}#my-svg [data-look="neo"].node .outer-path{filter:drop-shadow(1px 2px 2px rgba(185, 185, 185, 1));}#my-svg [data-look="neo"].node .neo-line path{stroke:#9370DB;filter:none;}#my-svg [data-look="neo"].node circle{stroke:#9370DB;filter:drop-shadow(1px 2px 2px rgba(185, 185, 185, 1));}#my-svg [data-look="neo"].node circle .state-start{fill:#000000;}#my-svg [data-look="neo"].icon-shape .icon{fill:#9370DB;filter:drop-shadow(1px 2px 2px rgba(185, 185, 185, 1));}#my-svg [data-look="neo"].icon-shape .icon-neo path{stroke:#9370DB;filter:drop-shadow(1px 2px 2px rgba(185, 185, 185, 1));}#my-svg :root{--mermaid-font-family:"trebuchet ms",verdana,arial,sans-serif;}#my-svg .title&gt;*{fill:rgb(26, 39, 68)!important;color:rgb(255, 255, 255)!important;stroke:none!important;rx:10!important;ry:10!important;}#my-svg .title span{fill:rgb(26, 39, 68)!important;color:rgb(255, 255, 255)!important;stroke:none!important;rx:10!important;ry:10!important;}#my-svg .title tspan{fill:rgb(255, 255, 255)!important;}#my-svg .feature&gt;*{fill:rgb(254, 243, 199)!important;color:rgb(146, 64, 14)!important;stroke:rgb(212, 160, 48)!important;stroke-width:2!important;rx:6!important;ry:6!important;}#my-svg .feature span{fill:rgb(254, 243, 199)!important;color:rgb(146, 64, 14)!important;stroke:rgb(212, 160, 48)!important;stroke-width:2!important;rx:6!important;ry:6!important;}#my-svg .feature tspan{fill:rgb(146, 64, 14)!important;}#my-svg .deci&gt;*{fill:rgb(219, 234, 254)!important;color:rgb(30, 64, 175)!important;stroke:rgb(43, 108, 176)!important;stroke-width:2!important;rx:6!important;ry:6!important;}#my-svg .deci span{fill:rgb(219, 234, 254)!important;color:rgb(30, 64, 175)!important;stroke:rgb(43, 108, 176)!important;stroke-width:2!important;rx:6!important;ry:6!important;}#my-svg .deci tspan{fill:rgb(30, 64, 175)!important;}#my-svg .gen&gt;*{fill:rgb(224, 242, 230)!important;color:rgb(22, 101, 52)!important;stroke:rgb(56, 161, 105)!important;stroke-width:2!important;rx:6!important;ry:6!important;}#my-svg .gen span{fill:rgb(224, 242, 230)!important;color:rgb(22, 101, 52)!important;stroke:rgb(56, 161, 105)!important;stroke-width:2!important;rx:6!important;ry:6!important;}#my-svg .gen tspan{fill:rgb(22, 101, 52)!important;}#my-svg .embed&gt;*{fill:rgb(243, 244, 246)!important;color:rgb(55, 65, 81)!important;stroke:rgb(156, 163, 175)!important;stroke-width:1!important;rx:4!important;ry:4!important;}#my-svg .embed span{fill:rgb(243, 244, 246)!important;color:rgb(55, 65, 81)!important;stroke:rgb(156, 163, 175)!important;stroke-width:1!important;rx:4!important;ry:4!important;}#my-svg .embed tspan{fill:rgb(55, 65, 81)!important;}#my-svg .result&gt;*{fill:rgb(243, 244, 246)!important;color:rgb(55, 65, 81)!important;stroke:none!important;rx:0!important;ry:0!important;}#my-svg .result span{fill:rgb(243, 244, 246)!important;color:rgb(55, 65, 81)!important;stroke:none!important;rx:0!important;ry:0!important;}#my-svg .result tspan{fill:rgb(55, 65, 81)!important;}</style><g><marker id="my-svg_flowchart-v2-pointEnd" class="marker flowchart-v2" viewBox="0 0 10 10" refX="5" refY="5" markerUnits="userSpaceOnUse" markerWidth="8" markerHeight="8" orient="auto"><path d="M 0 0 L 10 5 L 0 10 z" class="arrowMarkerPath" style="stroke-width: 1; stroke-dasharray: 1, 0;"/></marker><marker id="my-svg_flowchart-v2-pointStart" class="marker flowchart-v2" viewBox="0 0 10 10" refX="4.5" refY="5" markerUnits="userSpaceOnUse" markerWidth="8" markerHeight="8" orient="auto"><path d="M 0 5 L 10 10 L 10 0 z" class="arrowMarkerPath" style="stroke-width: 1; stroke-dasharray: 1, 0;"/></marker><marker id="my-svg_flowchart-v2-pointEnd-margin" class="marker flowchart-v2" viewBox="0 0 11.5 14" refX="11.5" refY="7" markerUnits="userSpaceOnUse" markerWidth="10.5" markerHeight="14" orient="auto"><path d="M 0 0 L 11.5 7 L 0 14 z" class="arrowMarkerPath" style="stroke-width: 0; stroke-dasharray: 1, 0;"/></marker><marker id="my-svg_flowchart-v2-pointStart-margin" class="marker flowchart-v2" viewBox="0 0 11.5 14" refX="1" refY="7" markerUnits="userSpaceOnUse" markerWidth="11.5" markerHeight="14" orient="auto"><polygon points="0,7 11.5,14 11.5,0" class="arrowMarkerPath" style="stroke-width: 0; stroke-dasharray: 1, 0;"/></marker><marker id="my-svg_flowchart-v2-circleEnd" class="marker flowchart-v2" viewBox="0 0 10 10" refX="11" refY="5" markerUnits="userSpaceOnUse" markerWidth="11" markerHeight="11" orient="auto"><circle cx="5" cy="5" r="5" class="arrowMarkerPath" style="stroke-width: 1; stroke-dasharray: 1, 0;"/></marker><marker id="my-svg_flowchart-v2-circleStart" class="marker flowchart-v2" viewBox="0 0 10 10" refX="-1" refY="5" markerUnits="userSpaceOnUse" markerWidth="11" markerHeight="11" orient="auto"><circle cx="5" cy="5" r="5" class="arrowMarkerPath" style="stroke-width: 1; stroke-dasharray: 1, 0;"/></marker><marker id="my-svg_flowchart-v2-circleEnd-margin" class="marker flowchart-v2" viewBox="0 0 10 10" refY="5" refX="12.25" markerUnits="userSpaceOnUse" markerWidth="14" markerHeight="14" orient="auto"><circle cx="5" cy="5" r="5" class="arrowMarkerPath" style="stroke-width: 0; stroke-dasharray: 1, 0;"/></marker><marker id="my-svg_flowchart-v2-circleStart-margin" class="marker flowchart-v2" viewBox="0 0 10 10" refX="-2" refY="5" markerUnits="userSpaceOnUse" markerWidth="14" markerHeight="14" orient="auto"><circle cx="5" cy="5" r="5" class="arrowMarkerPath" style="stroke-width: 0; stroke-dasharray: 1, 0;"/></marker><marker id="my-svg_flowchart-v2-crossEnd" class="marker cross flowchart-v2" viewBox="0 0 11 11" refX="12" refY="5.2" markerUnits="userSpaceOnUse" markerWidth="11" markerHeight="11" orient="auto"><path d="M 1,1 l 9,9 M 10,1 l -9,9" class="arrowMarkerPath" style="stroke-width: 2; stroke-dasharray: 1, 0;"/></marker><marker id="my-svg_flowchart-v2-crossStart" class="marker cross flowchart-v2" viewBox="0 0 11 11" refX="-1" refY="5.2" markerUnits="userSpaceOnUse" markerWidth="11" markerHeight="11" orient="auto"><path d="M 1,1 l 9,9 M 10,1 l -9,9" class="arrowMarkerPath" style="stroke-width: 2; stroke-dasharray: 1, 0;"/></marker><marker id="my-svg_flowchart-v2-crossEnd-margin" class="marker cross flowchart-v2" viewBox="0 0 15 15" refX="17.7" refY="7.5" markerUnits="userSpaceOnUse" markerWidth="12" markerHeight="12" orient="auto"><path d="M 1,1 L 14,14 M 1,14 L 14,1" class="arrowMarkerPath" style="stroke-width: 2.5;"/></marker><marker id="my-svg_flowchart-v2-crossStart-margin" class="marker cross flowchart-v2" viewBox="0 0 15 15" refX="-3.5" refY="7.5" markerUnits="userSpaceOnUse" markerWidth="12" markerHeight="12" orient="auto"><path d="M 1,1 L 14,14 M 1,14 L 14,1" class="arrowMarkerPath" style="stroke-width: 2.5; stroke-dasharray: 1, 0;"/></marker><g class="root"><g class="clusters"/><g class="edgePaths"><path d="M73.849,278L84.144,263.5C94.439,249,115.03,220,128.825,205.5C142.621,191,149.621,191,153.121,191L156.621,191" id="my-svg-L_T_F1_0" class="edge-thickness-normal edge-pattern-solid edge-thickness-normal edge-pattern-solid flowchart-link" style=";" data-edge="true" data-et="edge" data-id="L_T_F1_0" data-points="W3sieCI6NzMuODQ4NTA5NzcwNTE5MzMsInkiOjI3OH0seyJ4IjoxMzUuNjIwNTkwMjA5OTYwOTQsInkiOjE5MX0seyJ4IjoxNjAuNjIwNTkwMjA5OTYwOTQsInkiOjE5MX1d" data-look="classic" marker-end="url(#my-svg_flowchart-v2-pointEnd)"/><path d="M70.593,317L81.431,336.667C92.269,356.333,113.945,395.667,143.348,415.333C172.751,435,209.881,435,247.011,435C284.141,435,321.272,435,343.337,435C365.402,435,372.402,435,375.902,435L379.402,435" id="my-svg-L_T_F2_0" class="edge-thickness-normal edge-pattern-solid edge-thickness-normal edge-pattern-solid flowchart-link" style=";" data-edge="true" data-et="edge" data-id="L_T_F2_0" data-points="W3sieCI6NzAuNTkzMjcxNTg3MjA1OTUsInkiOjMxNi45OTk5OTk5OTk5OTk5NH0seyJ4IjoxMzUuNjIwNTkwMjA5OTYwOTQsInkiOjQzNX0seyJ4IjoyNDcuMDExMjE1MjA5OTYwOTQsInkiOjQzNX0seyJ4IjozNTguNDAxODQwMjA5OTYwOTQsInkiOjQzNX0seyJ4IjozODMuNDAxODQwMjA5OTYwOTQsInkiOjQzNX1d" data-look="classic" marker-end="url(#my-svg_flowchart-v2-pointEnd)"/><path d="M333.402,191L337.569,191C341.735,191,350.069,191,361.976,191C373.884,191,389.365,191,397.106,191L404.847,191" id="my-svg-L_F1_D1_0" class="edge-thickness-normal edge-pattern-solid edge-thickness-normal edge-pattern-solid flowchart-link" style=";" data-edge="true" data-et="edge" data-id="L_F1_D1_0" data-points="W3sieCI6MzMzLjQwMTg0MDIwOTk2MDk0LCJ5IjoxOTF9LHsieCI6MzU4LjQwMTg0MDIwOTk2MDk0LCJ5IjoxOTF9LHsieCI6NDA4Ljg0NzE1MjcwOTk2MDk0LCJ5IjoxOTF9XQ==" data-look="classic" marker-end="url(#my-svg_flowchart-v2-pointEnd)"/><path d="M530.738,183.345L541.812,181.954C552.886,180.564,575.035,177.782,592.276,176.391C609.516,175,621.85,175,628.016,175L634.183,175" id="my-svg-L_D1_D1E_0" class="edge-thickness-normal edge-pattern-solid edge-thickness-normal edge-pattern-solid flowchart-link" style=";" data-edge="true" data-et="edge" data-id="L_D1_D1E_0" data-points="W3sieCI6NTMwLjczNzc3NzcwOTk2MDksInkiOjE4My4zNDUzOTQzMzMzNzQyM30seyJ4Ijo1OTcuMTgzMDkwMjA5OTYwOSwieSI6MTc1fSx7IngiOjYzOC4xODMwOTAyMDk5NjA5LCJ5IjoxNzV9XQ==" data-look="classic" marker-end="url(#my-svg_flowchart-v2-pointEnd)"/><path d="M718.535,148L729.976,131.167C741.417,114.333,764.3,80.667,779.242,63.833C794.183,47,801.183,47,804.683,47L808.183,47" id="my-svg-L_D1E_D1O1_0" class="edge-thickness-normal edge-pattern-solid edge-thickness-normal edge-pattern-solid flowchart-link" style=";" data-edge="true" data-et="edge" data-id="L_D1E_D1O1_0" data-points="W3sieCI6NzE4LjUzNDY1MjcwOTk2MDksInkiOjE0OH0seyJ4Ijo3ODcuMTgzMDkwMjA5OTYwOSwieSI6NDd9LHsieCI6ODEyLjE4MzA5MDIwOTk2MDksInkiOjQ3fV0=" data-look="classic" marker-end="url(#my-svg_flowchart-v2-pointEnd)"/><path d="M762.183,175L766.35,175C770.516,175,778.85,175,786.516,175C794.183,175,801.183,175,804.683,175L808.183,175" id="my-svg-L_D1E_D1O2_0" class="edge-thickness-normal edge-pattern-solid edge-thickness-normal edge-pattern-solid flowchart-link" style=";" data-edge="true" data-et="edge" data-id="L_D1E_D1O2_0" data-points="W3sieCI6NzYyLjE4MzA5MDIwOTk2MDksInkiOjE3NX0seyJ4Ijo3ODcuMTgzMDkwMjA5OTYwOSwieSI6MTc1fSx7IngiOjgxMi4xODMwOTAyMDk5NjA5LCJ5IjoxNzV9XQ==" data-look="classic" marker-end="url(#my-svg_flowchart-v2-pointEnd)"/><path d="M718.535,202L729.976,218.833C741.417,235.667,764.3,269.333,779.242,286.167C794.183,303,801.183,303,804.683,303L808.183,303" id="my-svg-L_D1E_D1O3_0" class="edge-thickness-normal edge-pattern-solid edge-thickness-normal edge-pattern-solid flowchart-link" style=";" data-edge="true" data-et="edge" data-id="L_D1E_D1O3_0" data-points="W3sieCI6NzE4LjUzNDY1MjcwOTk2MDksInkiOjIwMn0seyJ4Ijo3ODcuMTgzMDkwMjA5OTYwOSwieSI6MzAzfSx7IngiOjgxMi4xODMwOTAyMDk5NjA5LCJ5IjozMDN9XQ==" data-look="classic" marker-end="url(#my-svg_flowchart-v2-pointEnd)"/><path d="M556.183,435L563.016,435C569.85,435,583.516,435,596.7,434.014C609.884,433.027,622.584,431.054,628.935,430.068L635.285,429.081" id="my-svg-L_F2_G1_0" class="edge-thickness-normal edge-pattern-solid edge-thickness-normal edge-pattern-solid flowchart-link" style=";" data-edge="true" data-et="edge" data-id="L_F2_G1_0" data-points="W3sieCI6NTU2LjE4MzA5MDIwOTk2MDksInkiOjQzNX0seyJ4Ijo1OTcuMTgzMDkwMjA5OTYwOSwieSI6NDM1fSx7IngiOjYzOS4yMzc3Nzc3MDk5NjA5LCJ5Ijo0MjguNDY3MjMzMDA5NzA4NzZ9XQ==" data-look="classic" marker-end="url(#my-svg_flowchart-v2-pointEnd)"/><path d="M761.128,419L765.471,419C769.813,419,778.498,419,792.832,419C807.165,419,827.147,419,837.138,419L847.128,419" id="my-svg-L_G1_G1E_0" class="edge-thickness-normal edge-pattern-solid edge-thickness-normal edge-pattern-solid flowchart-link" style=";" data-edge="true" data-et="edge" data-id="L_G1_G1E_0" data-points="W3sieCI6NzYxLjEyODQwMjcwOTk2MDksInkiOjQxOX0seyJ4Ijo3ODcuMTgzMDkwMjA5OTYwOSwieSI6NDE5fSx7IngiOjg1MS4xMjg0MDI3MDk5NjA5LCJ5Ijo0MTl9XQ==" data-look="classic" marker-end="url(#my-svg_flowchart-v2-pointEnd)"/><path d="M966.262,392L978.397,385.833C990.532,379.667,1014.803,367.333,1030.438,361.167C1046.074,355,1053.074,355,1056.574,355L1060.074,355" id="my-svg-L_G1E_G1O1_0" class="edge-thickness-normal edge-pattern-solid edge-thickness-normal edge-pattern-solid flowchart-link" style=";" data-edge="true" data-et="edge" data-id="L_G1E_G1O1_0" data-points="W3sieCI6OTY2LjI2MTU4MTQyMDg5ODQsInkiOjM5Mn0seyJ4IjoxMDM5LjA3MzcxNTIwOTk2MSwieSI6MzU1fSx7IngiOjEwNjQuMDczNzE1MjA5OTYxLCJ5IjozNTV9XQ==" data-look="classic" marker-end="url(#my-svg_flowchart-v2-pointEnd)"/><path d="M966.262,446L978.397,452.167C990.532,458.333,1014.803,470.667,1030.438,476.833C1046.074,483,1053.074,483,1056.574,483L1060.074,483" id="my-svg-L_G1E_G1O2_0" class="edge-thickness-normal edge-pattern-solid edge-thickness-normal edge-pattern-solid flowchart-link" style=";" data-edge="true" data-et="edge" data-id="L_G1E_G1O2_0" data-points="W3sieCI6OTY2LjI2MTU4MTQyMDg5ODQsInkiOjQ0Nn0seyJ4IjoxMDM5LjA3MzcxNTIwOTk2MSwieSI6NDgzfSx7IngiOjEwNjQuMDczNzE1MjA5OTYxLCJ5Ijo0ODN9XQ==" data-look="classic" marker-end="url(#my-svg_flowchart-v2-pointEnd)"/><path d="M490.025,218L507.885,241.833C525.744,265.667,561.464,313.333,587.918,342.006C614.372,370.679,631.561,380.358,640.155,385.198L648.749,390.037" id="my-svg-L_D1_G1_0" class="edge-thickness-normal edge-pattern-dotted edge-thickness-normal edge-pattern-solid flowchart-link" style=";" data-edge="true" data-et="edge" data-id="L_D1_G1_0" data-points="W3sieCI6NDkwLjAyNTA5Mzg4NjQzMTUzLCJ5IjoyMTh9LHsieCI6NTk3LjE4MzA5MDIwOTk2MDksInkiOjM2MX0seyJ4Ijo2NTIuMjM0ODE0MzQ3ODkyLCJ5IjozOTJ9XQ==" data-look="classic" marker-end="url(#my-svg_flowchart-v2-pointEnd)"/></g><g class="edgeLabels"><g class="edgeLabel"><g class="label" data-id="L_T_F1_0" transform="translate(0, 0)"><foreignObject width="0" height="0"><div xmlns="http://www.w3.org/1999/xhtml" class="labelBkg" style="display: table-cell; white-space: nowrap; line-height: 1.5; max-width: 200px; text-align: center;"><span class="edgeLabel"></span></div></foreignObject></g></g><g class="edgeLabel"><g class="label" data-id="L_T_F2_0" transform="translate(0, 0)"><foreignObject width="0" height="0"><div xmlns="http://www.w3.org/1999/xhtml" class="labelBkg" style="display: table-cell; white-space: nowrap; line-height: 1.5; max-width: 200px; text-align: center;"><span class="edgeLabel"></span></div></foreignObject></g></g><g class="edgeLabel"><g class="label" data-id="L_F1_D1_0" transform="translate(0, 0)"><foreignObject width="0" height="0"><div xmlns="http://www.w3.org/1999/xhtml" class="labelBkg" style="display: table-cell; white-space: nowrap; line-height: 1.5; max-width: 200px; text-align: center;"><span class="edgeLabel"></span></div></foreignObject></g></g><g class="edgeLabel"><g class="label" data-id="L_D1_D1E_0" transform="translate(0, 0)"><foreignObject width="0" height="0"><div xmlns="http://www.w3.org/1999/xhtml" class="labelBkg" style="display: table-cell; white-space: nowrap; line-height: 1.5; max-width: 200px; text-align: center;"><span class="edgeLabel"></span></div></foreignObject></g></g><g class="edgeLabel"><g class="label" data-id="L_D1E_D1O1_0" transform="translate(0, 0)"><foreignObject width="0" height="0"><div xmlns="http://www.w3.org/1999/xhtml" class="labelBkg" style="display: table-cell; white-space: nowrap; line-height: 1.5; max-width: 200px; text-align: center;"><span class="edgeLabel"></span></div></foreignObject></g></g><g class="edgeLabel"><g class="label" data-id="L_D1E_D1O2_0" transform="translate(0, 0)"><foreignObject width="0" height="0"><div xmlns="http://www.w3.org/1999/xhtml" class="labelBkg" style="display: table-cell; white-space: nowrap; line-height: 1.5; max-width: 200px; text-align: center;"><span class="edgeLabel"></span></div></foreignObject></g></g><g class="edgeLabel"><g class="label" data-id="L_D1E_D1O3_0" transform="translate(0, 0)"><foreignObject width="0" height="0"><div xmlns="http://www.w3.org/1999/xhtml" class="labelBkg" style="display: table-cell; white-space: nowrap; line-height: 1.5; max-width: 200px; text-align: center;"><span class="edgeLabel"></span></div></foreignObject></g></g><g class="edgeLabel"><g class="label" data-id="L_F2_G1_0" transform="translate(0, 0)"><foreignObject width="0" height="0"><div xmlns="http://www.w3.org/1999/xhtml" class="labelBkg" style="display: table-cell; white-space: nowrap; line-height: 1.5; max-width: 200px; text-align: center;"><span class="edgeLabel"></span></div></foreignObject></g></g><g class="edgeLabel"><g class="label" data-id="L_G1_G1E_0" transform="translate(0, 0)"><foreignObject width="0" height="0"><div xmlns="http://www.w3.org/1999/xhtml" class="labelBkg" style="display: table-cell; white-space: nowrap; line-height: 1.5; max-width: 200px; text-align: center;"><span class="edgeLabel"></span></div></foreignObject></g></g><g class="edgeLabel"><g class="label" data-id="L_G1E_G1O1_0" transform="translate(0, 0)"><foreignObject width="0" height="0"><div xmlns="http://www.w3.org/1999/xhtml" class="labelBkg" style="display: table-cell; white-space: nowrap; line-height: 1.5; max-width: 200px; text-align: center;"><span class="edgeLabel"></span></div></foreignObject></g></g><g class="edgeLabel"><g class="label" data-id="L_G1E_G1O2_0" transform="translate(0, 0)"><foreignObject width="0" height="0"><div xmlns="http://www.w3.org/1999/xhtml" class="labelBkg" style="display: table-cell; white-space: nowrap; line-height: 1.5; max-width: 200px; text-align: center;"><span class="edgeLabel"></span></div></foreignObject></g></g><g class="edgeLabel" transform="translate(562.54763, 314.77974)"><g class="label" data-id="L_D1_G1_0" transform="translate(-16, -12)"><foreignObject width="32" height="24"><div xmlns="http://www.w3.org/1999/xhtml" class="labelBkg" style="display: table-cell; white-space: nowrap; line-height: 1.5; max-width: 200px; text-align: center;"><span class="edgeLabel"><p>协同</p></span></div></foreignObject></g></g></g><g class="nodes"><g class="node default title" id="my-svg-flowchart-T-0" data-look="classic" transform="translate(59.31029510498047, 297)"><g class="basic label-container outer-path"><path d="M-31.8203125 -19.5 C-18.288974745909577 -19.5, -4.757636991819151 -19.5, 31.8203125 -19.5 C31.8203125 -19.5, 31.8203125 -19.5, 31.8203125 -19.5 C32.21399576144882 -19.48737534406332, 32.60767902289764 -19.474750688126637, 33.0696817896239 -19.45993515863156 C33.33485704481886 -19.434354020682804, 33.600032300013815 -19.408772882734052, 34.313917152847864 -19.3399052695533 C34.662243111614096 -19.28359062984813, 35.01056907038033 -19.22727599014296, 35.54790575967676 -19.140403561325776 C35.86184296477812 -19.068749442893107, 36.175780169879474 -18.997095324460442, 36.76657688623539 -18.862249829261074 C37.03825145575386 -18.78161824307691, 37.30992602527232 -18.700986656892745, 37.964922751460605 -18.50658706670804 C38.292673750246976 -18.385971669457636, 38.62042474903334 -18.26535627220723, 39.1380190951478 -18.074876768247425 C39.38741008206189 -17.96447877626133, 39.63680106897599 -17.85408078427524, 40.28104541279238 -17.568892924097174 C40.65670948058154 -17.37290922055589, 41.0323735483707 -17.176925517014602, 41.38930476407678 -16.990714730406097 C41.693972852347095 -16.806023144868213, 41.998640940617406 -16.62133155933033, 42.4582430736057 -16.342718045390892 C42.86198267609108 -16.06108677630279, 43.26572227857647 -15.77945550721469, 43.48346784457871 -15.627565626425154 C43.84074583320934 -15.342645938058794, 44.198023821839975 -15.057726249692434, 44.460766208501866 -14.848196188198123 C44.70046630717535 -14.630506900699944, 44.94016640584883 -14.412817613201764, 45.38612223676799 -14.007812326905688 C45.617791269752736 -13.768595029967594, 45.849460302737484 -13.5293777330295, 46.25573344296865 -13.10986736009568 C46.552318299146044 -12.761481911873318, 46.848903155323434 -12.413096463650955, 47.06602640812658 -12.158051136245305 C47.349558576742666 -11.778143860611687, 47.63309074535876 -11.398236584978068, 47.813671464640635 -11.156274872382312 C48.009179198253406 -10.855922492375761, 48.20468693186618 -10.55557011236921, 48.49559637860425 -10.108655082055241 C48.71028034952187 -9.727461952581649, 48.924964320439486 -9.346268823108057, 49.108998974273504 -9.019496659696287 C49.262823727183005 -8.700076268957249, 49.41664848009251 -8.38065587821821, 49.65135864880834 -7.893275190886684 C49.81432424448405 -7.4907470188422325, 49.97728984015976 -7.088218846797781, 50.120446729970325 -6.734618561215508 C50.20667892487462 -6.474900929398195, 50.29291111977892 -6.2151832975808805, 50.51433563421488 -5.548287939305138 C50.592763085019385 -5.24921007871536, 50.6711905358239 -4.950132218125583, 50.83140678754556 -4.339158212148133 C50.879365947885674 -4.092898059973792, 50.92732510822578 -3.8466379077994515, 51.070357276581774 -3.1121979531509023 C51.106275147598 -2.83362603833496, 51.14219301861422 -2.555054123519018, 51.23020520250937 -1.872449005199798 C51.25704181026587 -1.454447177272394, 51.28387841802237 -1.0364453493449899, 51.31029371591342 -0.6250057626472757 C51.31029371591342 -0.2167405980067198, 51.31029371591342 0.1915245666338361, 51.31029371591342 0.625005762647271 C51.279633734411114 1.1025597228373065, 51.2489737529088 1.580113683027342, 51.23020520250937 1.8724490051997846 C51.173687042262074 2.3107926953046976, 51.117168882014774 2.7491363854096105, 51.070357276581774 3.1121979531508885 C50.988844837911905 3.530747098060675, 50.90733239924203 3.949296242970461, 50.83140678754556 4.339158212148129 C50.722267187615714 4.755354808082472, 50.61312758768586 5.171551404016816, 50.51433563421489 5.548287939305125 C50.422172970390314 5.825867198618402, 50.33001030656574 6.10344645793168, 50.120446729970325 6.734618561215495 C49.93862842415806 7.183713291789595, 49.7568101183458 7.632808022363696, 49.65135864880834 7.893275190886679 C49.493398802506796 8.22128219153111, 49.33543895620526 8.549289192175541, 49.108998974273504 9.019496659696284 C48.9106786030536 9.37163456091244, 48.71235823183369 9.723772462128595, 48.49559637860425 10.108655082055236 C48.24474487049335 10.494030361575225, 47.993893362382444 10.879405641095216, 47.81367146464064 11.156274872382301 C47.53549975273639 11.52899962436971, 47.25732804083214 11.901724376357118, 47.06602640812658 12.158051136245302 C46.829140234741814 12.43631111470817, 46.59225406135704 12.714571093171038, 46.25573344296866 13.10986736009567 C45.919881609917994 13.456661951668787, 45.58402977686732 13.803456543241902, 45.38612223676799 14.007812326905684 C45.16260642117841 14.210803476719734, 44.939090605588824 14.413794626533784, 44.46076620850189 14.848196188198111 C44.2346953986072 15.028481643092215, 44.008624588712514 15.20876709798632, 43.48346784457871 15.627565626425152 C43.147243771311764 15.862100985030628, 42.81101969804482 16.096636343636103, 42.45824307360571 16.34271804539089 C42.071690817079514 16.577048294930275, 41.68513856055331 16.81137854446966, 41.38930476407678 16.990714730406093 C41.01124059674416 17.187950564341868, 40.633176429411535 17.385186398277643, 40.28104541279239 17.56889292409717 C39.8590135257829 17.755713921345148, 39.43698163877341 17.942534918593125, 39.138019095147804 18.07487676824742 C38.86490581643761 18.175384979444242, 38.59179253772743 18.275893190641067, 37.96492275146062 18.506587066708033 C37.70646961751817 18.58329460021397, 37.44801648357571 18.660002133719907, 36.76657688623541 18.86224982926107 C36.39724751451201 18.94654684825755, 36.02791814278861 19.03084386725403, 35.547905759676766 19.140403561325773 C35.13203720985148 19.207637963352756, 34.71616866002619 19.274872365379736, 34.31391715284788 19.3399052695533 C33.958665908352145 19.37417592985767, 33.60341466385642 19.408446590162043, 33.0696817896239 19.45993515863156 C32.693392409024376 19.472002026664537, 32.317103028424846 19.48406889469752, 31.820312500000004 19.5 C31.820312500000004 19.5, 31.820312500000004 19.5, 31.8203125 19.5 C18.871983308342777 19.5, 5.923654116685558 19.5, -31.820312499999996 19.5 C-32.08423164437554 19.491536626727328, -32.34815078875109 19.483073253454656, -33.06968178962389 19.45993515863156 C-33.36052757279917 19.43187761572187, -33.65137335597444 19.403820072812184, -34.31391715284787 19.3399052695533 C-34.62949754697123 19.28888467879394, -34.94507794109459 19.237864088034584, -35.54790575967676 19.140403561325773 C-36.026223385933726 19.031230684446832, -36.50454101219069 18.922057807567892, -36.766576886235384 18.862249829261074 C-37.23774098659498 18.72241079746518, -37.70890508695457 18.582571765669286, -37.96492275146059 18.506587066708043 C-38.22387678720566 18.41128958780899, -38.48283082295073 18.315992108909942, -39.1380190951478 18.074876768247425 C-39.45640982750425 17.933934635758725, -39.77480055986071 17.792992503270025, -40.28104541279238 17.568892924097174 C-40.63229678928834 17.385645305966477, -40.98354816578429 17.202397687835784, -41.38930476407678 16.990714730406097 C-41.76855775753523 16.760809337033614, -42.14781075099367 16.530903943661126, -42.458243073605686 16.3427180453909 C-42.797553512465115 16.106029771754724, -43.13686395132455 15.869341498118548, -43.48346784457871 15.627565626425156 C-43.719491403926845 15.43934311869571, -43.95551496327498 15.251120610966266, -44.460766208501866 14.848196188198125 C-44.74818202762821 14.587172745873435, -45.035597846754555 14.326149303548746, -45.386122236767974 14.007812326905697 C-45.686564678234795 13.697580839308023, -45.987007119701616 13.387349351710348, -46.255733442968655 13.109867360095677 C-46.56290756007629 12.749043163438628, -46.87008167718393 12.388218966781581, -47.066026408126575 12.158051136245307 C-47.30356747160292 11.839767751623079, -47.54110853507926 11.52148436700085, -47.813671464640635 11.156274872382316 C-48.04659588383501 10.798440415535527, -48.27952030302938 10.440605958688739, -48.49559637860425 10.108655082055249 C-48.682297221458626 9.77714883005692, -48.868998064313004 9.445642578058592, -49.108998974273504 9.019496659696289 C-49.24412464837661 8.738905306194926, -49.37925032247972 8.458313952693564, -49.65135864880834 7.893275190886686 C-49.79349648489829 7.542191987696395, -49.93563432098824 7.191108784506103, -50.120446729970325 6.73461856121551 C-50.26300197343238 6.305264881001342, -50.40555721689444 5.875911200787176, -50.51433563421488 5.5482879393051325 C-50.61045641743054 5.181737733892848, -50.70657720064621 4.815187528480564, -50.83140678754556 4.339158212148136 C-50.880566885765376 4.086731497779838, -50.929726983985184 3.8343047834115405, -51.070357276581774 3.112197953150904 C-51.11093320941232 2.797499030741397, -51.15150914224287 2.4828001083318907, -51.23020520250937 1.872449005199809 C-51.26192903847041 1.3783246530870186, -51.29365287443146 0.8842003009742281, -51.31029371591342 0.6250057626472781 C-51.31029371591342 0.1847609597225071, -51.31029371591342 -0.2554838432022639, -51.31029371591342 -0.6250057626472687 C-51.29100533799634 -0.9254378180042104, -51.27171696007926 -1.2258698733611522, -51.23020520250937 -1.8724490051997822 C-51.18121521617539 -2.2524056650391064, -51.1322252298414 -2.6323623248784305, -51.070357276581774 -3.112197953150895 C-51.008180859588514 -3.4314607134209156, -50.94600444259525 -3.750723473690936, -50.83140678754556 -4.339158212148126 C-50.734154791561835 -4.710022222115764, -50.63690279557811 -5.080886232083403, -50.51433563421489 -5.548287939305123 C-50.428345446215694 -5.807276684882824, -50.3423552582165 -6.0662654304605255, -50.12044672997033 -6.734618561215485 C-49.937007637139864 -7.187716667060334, -49.753568544309395 -7.640814772905183, -49.65135864880834 -7.893275190886676 C-49.5225775000876 -8.16069200168046, -49.39379635136686 -8.428108812474244, -49.108998974273504 -9.019496659696282 C-48.95690873623748 -9.289548278135848, -48.804818498201456 -9.559599896575415, -48.49559637860425 -10.108655082055243 C-48.331008039182784 -10.361506969564077, -48.16641969976131 -10.614358857072911, -47.81367146464064 -11.156274872382308 C-47.65855744084917 -11.364113533084607, -47.5034434170577 -11.571952193786906, -47.06602640812659 -12.158051136245302 C-46.85194325224713 -12.40952539281797, -46.637860096367675 -12.66099964939064, -46.25573344296866 -13.10986736009567 C-46.03865238215369 -13.334021378073672, -45.82157132133873 -13.558175396051674, -45.386122236767996 -14.007812326905677 C-45.028748502486195 -14.33236969678955, -44.671374768204394 -14.656927066673424, -44.46076620850189 -14.848196188198107 C-44.21224354757472 -15.046386396821767, -43.96372088664756 -15.244576605445426, -43.48346784457872 -15.627565626425149 C-43.1829131413636 -15.83721957658461, -42.882358438148486 -16.046873526744072, -42.458243073605715 -16.342718045390885 C-42.08894441795623 -16.566589060685395, -41.71964576230675 -16.790460075979905, -41.38930476407679 -16.99071473040609 C-41.02144086997616 -17.18262908833032, -40.65357697587554 -17.374543446254545, -40.28104541279239 -17.56889292409717 C-39.951474310016955 -17.714784274916443, -39.62190320724153 -17.86067562573572, -39.138019095147804 -18.07487676824742 C-38.777525383817895 -18.207541786384166, -38.41703167248799 -18.34020680452091, -37.96492275146062 -18.506587066708033 C-37.65253314878442 -18.59930266101584, -37.34014354610823 -18.69201825532365, -36.76657688623541 -18.862249829261067 C-36.348990597023175 -18.957561174768557, -35.93140430781094 -19.05287252027605, -35.547905759676766 -19.140403561325773 C-35.12159080298897 -19.20932685740119, -34.69527584630117 -19.278250153476606, -34.31391715284788 -19.3399052695533 C-33.898400487696975 -19.379989662508503, -33.482883822546064 -19.420074055463708, -33.0696817896239 -19.45993515863156 C-32.728994424907654 -19.47086033931028, -32.388307060191416 -19.481785519989003, -31.820312500000007 -19.5 C-31.820312500000004 -19.5, -31.8203125 -19.5, -31.8203125 -19.5" stroke="none" stroke-width="0" fill="#1A2744" style="fill:#1A2744 !important;stroke:none !important;rx:10 !important;ry:10 !important"/></g><g class="label" style="color:#fff !important" transform="translate(-38.9453125, -12)"><rect/><foreignObject width="77.890625" height="24"><div style="color: rgb(255, 255, 255) !important; display: table-cell; white-space: nowrap; line-height: 1.5; max-width: 200px; text-align: center;" xmlns="http://www.w3.org/1999/xhtml"><span style="color:#fff !important" class="nodeLabel"><p>AI适配矩阵</p></span></div></foreignObject></g></g><g class="node default feature" id="my-svg-flowchart-F1-2" data-look="classic" transform="translate(247.01121520996094, 191)"><rect class="basic label-container" style="fill:#FEF3C7 !important;stroke:#D4A030 !important;stroke-width:2 !important;rx:6 !important;ry:6 !important" x="-86.390625" y="-39" width="172.78125" height="78"/><g class="label" style="color:#92400E !important" transform="translate(-56.390625, -24)"><rect/><foreignObject width="112.78125" height="48"><div style="color: rgb(146, 64, 14) !important; display: table-cell; white-space: nowrap; line-height: 1.5; max-width: 200px; text-align: center;" xmlns="http://www.w3.org/1999/xhtml"><span style="color:#92400E !important" class="nodeLabel"><p>流程环节特征<br />分类/预测/归因</p></span></div></foreignObject></g></g><g class="node default feature" id="my-svg-flowchart-F2-4" data-look="classic" transform="translate(469.79246520996094, 435)"><rect class="basic label-container" style="fill:#FEF3C7 !important;stroke:#D4A030 !important;stroke-width:2 !important;rx:6 !important;ry:6 !important" x="-86.390625" y="-39" width="172.78125" height="78"/><g class="label" style="color:#92400E !important" transform="translate(-56.390625, -24)"><rect/><foreignObject width="112.78125" height="48"><div style="color: rgb(146, 64, 14) !important; display: table-cell; white-space: nowrap; line-height: 1.5; max-width: 200px; text-align: center;" xmlns="http://www.w3.org/1999/xhtml"><span style="color:#92400E !important" class="nodeLabel"><p>流程环节特征<br />生成/解析/对话</p></span></div></foreignObject></g></g><g class="node default deci" id="my-svg-flowchart-D1-6" data-look="classic" transform="translate(469.79246520996094, 191)"><rect class="basic label-container" style="fill:#DBEAFE !important;stroke:#2B6CB0 !important;stroke-width:2 !important;rx:6 !important;ry:6 !important" x="-60.9453125" y="-27" width="121.890625" height="54"/><g class="label" style="color:#1E40AF !important" transform="translate(-30.9453125, -12)"><rect/><foreignObject width="61.890625" height="24"><div style="color: rgb(30, 64, 175) !important; display: table-cell; white-space: nowrap; line-height: 1.5; max-width: 200px; text-align: center;" xmlns="http://www.w3.org/1999/xhtml"><span style="color:#1E40AF !important" class="nodeLabel"><p>决策式AI</p></span></div></foreignObject></g></g><g class="node default embed" id="my-svg-flowchart-D1E-8" data-look="classic" transform="translate(700.1830902099609, 175)"><rect class="basic label-container" style="fill:#F3F4F6 !important;stroke:#9CA3AF !important;stroke-width:1 !important;rx:4 !important;ry:4 !important" x="-62" y="-27" width="124" height="54"/><g class="label" style="color:#374151 !important" transform="translate(-32, -12)"><rect/><foreignObject width="64" height="24"><div style="color: rgb(55, 65, 81) !important; display: table-cell; white-space: nowrap; line-height: 1.5; max-width: 200px; text-align: center;" xmlns="http://www.w3.org/1999/xhtml"><span style="color:#374151 !important" class="nodeLabel"><p>嵌入方式</p></span></div></foreignObject></g></g><g class="node default result" id="my-svg-flowchart-D1O1-10" data-look="classic" transform="translate(913.1284027099609, 47)"><rect class="basic label-container" style="fill:#F3F4F6 !important;stroke:none !important;rx:0 !important;ry:0 !important" x="-100.9453125" y="-39" width="201.890625" height="78"/><g class="label" style="color:#374151 !important" transform="translate(-70.9453125, -24)"><rect/><foreignObject width="141.890625" height="48"><div style="color: rgb(55, 65, 81) !important; display: table-cell; white-space: nowrap; line-height: 1.5; max-width: 200px; text-align: center;" xmlns="http://www.w3.org/1999/xhtml"><span style="color:#374151 !important" class="nodeLabel"><p>完全替代 🟢<br />例：AI自动匹配三单</p></span></div></foreignObject></g></g><g class="node default result" id="my-svg-flowchart-D1O2-12" data-look="classic" transform="translate(913.1284027099609, 175)"><rect class="basic label-container" style="fill:#F3F4F6 !important;stroke:none !important;rx:0 !important;ry:0 !important" x="-100.9453125" y="-39" width="201.890625" height="78"/><g class="label" style="color:#374151 !important" transform="translate(-70.9453125, -24)"><rect/><foreignObject width="141.890625" height="48"><div style="color: rgb(55, 65, 81) !important; display: table-cell; white-space: nowrap; line-height: 1.5; max-width: 200px; text-align: center;" xmlns="http://www.w3.org/1999/xhtml"><span style="color:#374151 !important" class="nodeLabel"><p>辅助决策 🟡<br />例：AI推荐→人确认</p></span></div></foreignObject></g></g><g class="node default result" id="my-svg-flowchart-D1O3-14" data-look="classic" transform="translate(913.1284027099609, 303)"><rect class="basic label-container" style="fill:#F3F4F6 !important;stroke:none !important;rx:0 !important;ry:0 !important" x="-100.9453125" y="-39" width="201.890625" height="78"/><g class="label" style="color:#374151 !important" transform="translate(-70.9453125, -24)"><rect/><foreignObject width="141.890625" height="48"><div style="color: rgb(55, 65, 81) !important; display: table-cell; white-space: nowrap; line-height: 1.5; max-width: 200px; text-align: center;" xmlns="http://www.w3.org/1999/xhtml"><span style="color:#374151 !important" class="nodeLabel"><p>智能质检 🟡<br />例：AI检查人的输出</p></span></div></foreignObject></g></g><g class="node default gen" id="my-svg-flowchart-G1-16" data-look="classic" transform="translate(700.1830902099609, 419)"><rect class="basic label-container" style="fill:#E0F2E6 !important;stroke:#38A169 !important;stroke-width:2 !important;rx:6 !important;ry:6 !important" x="-60.9453125" y="-27" width="121.890625" height="54"/><g class="label" style="color:#166534 !important" transform="translate(-30.9453125, -12)"><rect/><foreignObject width="61.890625" height="24"><div style="color: rgb(22, 101, 52) !important; display: table-cell; white-space: nowrap; line-height: 1.5; max-width: 200px; text-align: center;" xmlns="http://www.w3.org/1999/xhtml"><span style="color:#166534 !important" class="nodeLabel"><p>生成式AI</p></span></div></foreignObject></g></g><g class="node default embed" id="my-svg-flowchart-G1E-18" data-look="classic" transform="translate(913.1284027099609, 419)"><rect class="basic label-container" style="fill:#F3F4F6 !important;stroke:#9CA3AF !important;stroke-width:1 !important;rx:4 !important;ry:4 !important" x="-62" y="-27" width="124" height="54"/><g class="label" style="color:#374151 !important" transform="translate(-32, -12)"><rect/><foreignObject width="64" height="24"><div style="color: rgb(55, 65, 81) !important; display: table-cell; white-space: nowrap; line-height: 1.5; max-width: 200px; text-align: center;" xmlns="http://www.w3.org/1999/xhtml"><span style="color:#374151 !important" class="nodeLabel"><p>嵌入方式</p></span></div></foreignObject></g></g><g class="node default result" id="my-svg-flowchart-G1O1-20" data-look="classic" transform="translate(1165.019027709961, 355)"><rect class="basic label-container" style="fill:#F3F4F6 !important;stroke:none !important;rx:0 !important;ry:0 !important" x="-100.9453125" y="-39" width="201.890625" height="78"/><g class="label" style="color:#374151 !important" transform="translate(-70.9453125, -24)"><rect/><foreignObject width="141.890625" height="48"><div style="color: rgb(55, 65, 81) !important; display: table-cell; white-space: nowrap; line-height: 1.5; max-width: 200px; text-align: center;" xmlns="http://www.w3.org/1999/xhtml"><span style="color:#374151 !important" class="nodeLabel"><p>辅助生成 🟡<br />例：AI起草→人定稿</p></span></div></foreignObject></g></g><g class="node default result" id="my-svg-flowchart-G1O2-22" data-look="classic" transform="translate(1165.019027709961, 483)"><rect class="basic label-container" style="fill:#F3F4F6 !important;stroke:none !important;rx:0 !important;ry:0 !important" x="-100.9453125" y="-39" width="201.890625" height="78"/><g class="label" style="color:#374151 !important" transform="translate(-70.9453125, -24)"><rect/><foreignObject width="141.890625" height="48"><div style="color: rgb(55, 65, 81) !important; display: table-cell; white-space: nowrap; line-height: 1.5; max-width: 200px; text-align: center;" xmlns="http://www.w3.org/1999/xhtml"><span style="color:#374151 !important" class="nodeLabel"><p>辅助决策 🟡<br />例：AI检索→人判断</p></span></div></foreignObject></g></g></g></g></g><defs><filter id="my-svg-drop-shadow" height="130%" width="130%"><feDropShadow dx="4" dy="4" stdDeviation="0" flood-opacity="0.06" flood-color="#000000"/></filter></defs><defs><filter id="my-svg-drop-shadow-small" height="150%" width="150%"><feDropShadow dx="2" dy="2" stdDeviation="0" flood-opacity="0.06" flood-color="#000000"/></filter></defs></svg>